# xmcd
#
# Track frame offsets:
# 150
# 17111
# 35630
# 54632
# 72211
# 88339
# 114171
# 125099
# 141584
# 157829
# 167021
# 182502
#
# Disc length: 2650 seconds
#
#
# Revision: 0
# Processed by: cddbd v1.5.2PL0 Copyright (c) Steve Scherf et al.
# Submitted via: FreeRIP 2.931 
#
DISCID=a50a580c
DTITLE=Bluesbone - Mean old dog
DYEAR=2008
DGENRE=Blues
TTITLE0=Bouncin' Man
TTITLE1=I Can't Do All That
TTITLE2=The Grill Is Gone
TTITLE3=Rich Man's Wife
TTITLE4=Mean Old Dog
TTITLE5=No Hard Feelings
TTITLE6=You Got Me Moanin'
TTITLE7=If I Was A King
TTITLE8=I've Done You Wrong
TTITLE9=Running Shoe
TTITLE10=I Ain't Good For You
TTITLE11=Leave Me Alone
EXTD=
EXTT0=
EXTT1=
EXTT2=
EXTT3=
EXTT4=
EXTT5=
EXTT6=
EXTT7=
EXTT8=
EXTT9=
EXTT10=
EXTT11=
PLAYORDER=
